<svg width="65" height="43" viewBox="0 0 65 43" fill="none" xmlns="http://www.w3.org/2000/svg">
<path d="M10.5226 16.2434L8.32413 25.2144C7.41996 21.5497 6.51304 17.8859 5.60633 14.2219L5.12381 16.658H0V15.163H3.68027L5.60459 7.3609C6.5196 11.0591 7.4308 14.7582 8.34445 18.4568C9.07591 15.5173 9.80413 12.5773 10.5275 9.6357L11.5685 13.8408L12.9557 8.0934L15.197 17.1763L15.4796 15.4984H20.6034L20.6037 15.4992L20.6035 15.498L23.0704 16.0452C23.2663 16.1043 23.4755 16.1536 23.6966 16.1919C24.9257 16.4051 29.7327 17.9656 30.7315 16.3668C30.964 15.9906 30.9374 15.3967 30.6649 15.0485C30.3248 14.62 29.7629 14.3883 29.2529 14.2322C28.6189 14.0449 27.9845 13.8524 27.3725 13.6017C27.0976 13.4889 26.7697 13.3466 26.5275 13.1753C25.7078 12.7672 25.297 12.0793 25.297 11.1071C25.297 9.7512 26.2696 8.9025 27.5034 8.55761C28.5131 8.27531 29.8163 8.31085 30.7981 8.67215C31.3422 8.87183 31.8107 9.16968 32.2056 9.56881C32.3206 9.69272 32.3594 9.82385 32.3594 9.99066C32.3594 10.3632 32.139 10.6762 31.7419 10.6762C31.6155 10.6762 31.4731 10.6098 31.317 10.4744C30.4686 9.88166 29.3607 9.61761 28.3414 9.8279C27.7228 9.94775 27.0603 10.3002 27.0603 11.0132C27.0603 11.2813 27.1314 11.5061 27.2785 11.685C27.6093 12.0941 28.2038 12.3301 28.6951 12.4806C29.4241 12.7052 30.1468 12.9008 30.8533 13.1959C31.5163 13.4691 32.1073 13.877 32.4443 14.5258C32.5982 14.8262 32.6764 15.186 32.6764 15.6081C32.6764 17.0209 31.7291 17.9215 30.4285 18.2904C28.5917 18.8145 25.1965 17.8898 23.3131 17.5354C23.067 17.4893 22.8345 17.4308 22.6162 17.3615C24.2874 22.1471 28.8174 25.3542 33.8933 25.3542C40.489 25.3542 45.8345 20.0162 45.8345 13.4297C45.8345 11.3256 45.2868 9.27453 44.2311 7.45652V7.41442H45.92C46.8588 9.28272 47.3421 11.338 47.3421 13.4297C47.3421 20.8457 41.3199 26.8596 33.8933 26.8596C27.7921 26.8596 22.5167 22.7632 20.9294 17.015L16.8412 16.9934C16.4854 18.4794 16.1463 19.9691 15.783 21.4534L15.1933 23.8602C14.45 20.8534 13.7094 17.8463 12.9706 14.8384C12.511 16.7496 12.0447 18.6588 11.5769 20.568C11.2213 19.1272 10.8624 17.688 10.5226 16.2434ZM5.33302 34.5223C5.33302 34.8266 5.41387 35.0812 5.58046 35.284C5.95473 35.7473 6.63016 36.016 7.18663 36.186C8.01314 36.4414 8.83252 36.6626 9.63386 36.9972C10.3855 37.3068 11.0558 37.7699 11.438 38.5053C11.6125 38.8457 11.701 39.2539 11.701 39.7322C11.701 41.3346 10.6272 42.3552 9.15216 42.7739C7.84877 43.146 6.08943 43.0531 4.82532 42.5373C4.23822 42.3037 3.59964 41.9239 3.25032 41.383C3.06366 41.0463 3.32566 40.5735 3.62 40.3874C3.78576 40.2768 3.94943 40.2885 4.11453 40.395C4.20325 40.4498 4.29172 40.5044 4.37755 40.5616C5.25838 41.1343 6.32844 41.4299 7.37652 41.4299C8.34445 41.4299 9.6728 41.1271 9.6728 39.922C9.6728 39.5866 9.58697 39.3111 9.42038 39.0979C9.03444 38.612 8.39782 38.3494 7.81919 38.1722C7.10032 37.9599 6.38132 37.7415 5.68696 37.4576C5.37414 37.3286 5.00481 37.1686 4.72896 36.9738C3.79974 36.5111 3.33361 35.7313 3.33361 34.6289C3.33361 33.0919 4.43636 32.1286 5.83551 31.738C6.33788 31.5978 6.88452 31.5274 7.47577 31.5274C8.85355 31.5274 10.1763 31.8835 11.1671 32.8844C11.3606 33.093 11.3731 33.3665 11.3052 33.6306C11.2149 33.9465 10.9735 34.1402 10.6413 34.1402C10.4983 34.1402 10.3368 34.0648 10.1596 33.9113C9.19595 33.2391 7.94339 32.9399 6.78566 33.1782C6.08423 33.3144 5.33302 33.7137 5.33302 34.5223ZM15.4213 37.2547C15.4213 38.6988 15.7394 40.4055 17.1317 41.1518C17.5223 41.3623 17.9909 41.4688 18.5349 41.4688C19.079 41.4688 19.545 41.3623 19.9382 41.1518C21.3245 40.4041 21.6538 38.6974 21.6538 37.2547C21.6538 35.8032 21.33 34.1125 19.9408 33.3549C19.5476 33.1418 19.079 33.0352 18.5349 33.0352C17.9909 33.0352 17.5197 33.1418 17.1265 33.3549C15.7433 34.1143 15.4213 35.8066 15.4213 37.2547ZM13.263 37.2547C13.263 33.9318 15.0441 31.5274 18.5349 31.5274C22.0395 31.5274 23.8043 33.9196 23.8043 37.2547C23.8043 40.5856 22.035 42.9768 18.5349 42.9768C15.0494 42.9768 13.263 40.5738 13.263 37.2547ZM25.8947 32.9911C25.8947 32.6557 25.9838 32.3415 26.2228 32.0969C26.587 31.7229 27.1073 31.6984 27.5609 31.9251C27.751 32.0213 27.9254 32.167 28.0817 32.367L33.4133 40.0364V32.6401C33.4133 31.491 35.2072 31.4784 35.2072 32.6401V41.5129C35.2072 42.4561 34.3661 42.9978 33.5252 42.5841C33.3327 42.4906 33.1581 42.3425 32.9942 42.137L27.6937 34.5068V41.864C27.6937 42.9879 25.8947 43.0366 25.8947 41.864V32.9911ZM46.9746 41.5288C47.2919 42.412 46.1998 43.0125 45.4749 42.5607C45.3109 42.4568 45.1991 42.2931 45.1443 42.0694L44.3503 40.0364H39.4612L38.6748 42.0694C38.615 42.2982 38.5057 42.462 38.3443 42.5633C38.0701 42.7402 37.7687 42.7538 37.4642 42.6569C37.031 42.5099 36.7684 42.155 36.8342 41.6925C36.8421 41.638 36.8577 41.5832 36.8838 41.5288L40.0859 33.5318C40.3109 32.9046 40.6472 32.07 41.3486 31.855C41.696 31.7549 42.1515 31.7503 42.4966 31.86C43.1869 32.0667 43.5388 32.9161 43.7567 33.5318L46.9746 41.5288ZM41.8954 33.3421L39.8804 38.7573H43.931L41.9266 33.3421H41.8954ZM47.3393 33.3107C46.8842 33.3107 46.5555 33.009 46.5555 32.5492C46.5555 32.095 46.8851 31.7718 47.3393 31.7718H54.5481C55.5723 31.7718 55.5927 33.3107 54.5481 33.3107H51.9837V41.7418C51.9837 42.334 51.5453 42.7322 50.9631 42.7322C50.3819 42.7322 49.9401 42.3331 49.9401 41.7418V33.3107H47.3393ZM64.9433 41.5288C65.2614 42.4111 64.169 43.0126 63.4438 42.5607C63.2798 42.4568 63.1681 42.2931 63.1132 42.0694L62.3191 40.0364H57.43L56.6438 42.0694C56.5837 42.2982 56.4746 42.462 56.3131 42.5633C55.8391 42.8694 55.1543 42.698 54.8787 42.2072C54.7788 42.0212 54.7581 41.7252 54.8527 41.5288L58.0548 33.5318C58.2794 32.9044 58.6162 32.0701 59.3175 31.855C59.6649 31.7549 60.1202 31.7503 60.4655 31.86C61.1553 32.0665 61.508 32.9162 61.7256 33.5318L64.9433 41.5288ZM59.8642 33.3421L57.8492 38.7573H61.9L59.8954 33.3421H59.8642ZM42.6182 17.1785C42.6182 17.6183 42.4236 17.9947 42.0096 18.1737C41.4994 18.3791 40.9924 18.1367 40.6665 17.7288L35.9918 10.9995V17.488C35.9918 18.4807 34.4052 18.518 34.4052 17.488V9.66271C34.4052 8.50846 35.6508 8.23632 36.334 9.11257L41.0361 15.8763V3.87287C38.968 2.32869 36.4784 1.50551 33.8933 1.50551C27.5224 1.50551 22.2675 6.50345 21.966 12.855L20.4554 12.8901C20.7409 5.69387 26.6781 0 33.8933 0C37.0927 0 40.1629 1.12622 42.599 3.19318C42.599 7.85126 42.6179 12.5048 42.6182 17.1785Z" fill="#2EAB87"/>
</svg>
