<svg width="25" height="24" viewBox="0 0 25 24" fill="none" xmlns="http://www.w3.org/2000/svg">
<g clip-path="url(#clip0_108_985)">
<path fill-rule="evenodd" clip-rule="evenodd" d="M24.6 12C24.6 18.627 19.227 24 12.6 24C5.97298 24 0.599976 18.627 0.599976 12C0.599976 5.373 5.97298 0 12.6 0C19.227 0 24.6 5.373 24.6 12ZM13.03 8.859C11.863 9.344 9.52998 10.349 6.03198 11.873C5.46398 12.099 5.16598 12.32 5.13898 12.536C5.09298 12.902 5.55098 13.046 6.17298 13.241C6.25798 13.268 6.34598 13.295 6.43598 13.325C7.04898 13.524 7.87298 13.757 8.30098 13.766C8.68998 13.774 9.12398 13.614 9.60298 13.286C12.871 11.079 14.558 9.964 14.664 9.94C14.739 9.923 14.843 9.901 14.913 9.964C14.983 10.026 14.976 10.144 14.969 10.176C14.923 10.369 13.129 12.038 12.199 12.902C11.909 13.171 11.704 13.362 11.662 13.406C11.568 13.503 11.472 13.596 11.38 13.685C10.81 14.233 10.384 14.645 11.404 15.317C11.894 15.64 12.286 15.907 12.677 16.173C13.104 16.464 13.53 16.754 14.082 17.116C14.222 17.208 14.356 17.303 14.487 17.396C14.984 17.751 15.431 18.069 15.983 18.019C16.303 17.989 16.635 17.688 16.803 16.789C17.2 14.663 17.982 10.059 18.163 8.161C18.174 8.00341 18.1673 7.84509 18.143 7.689C18.1284 7.56293 18.067 7.44693 17.971 7.364C17.828 7.247 17.606 7.222 17.506 7.224C17.055 7.232 16.363 7.473 13.03 8.859Z" fill="white"/>
</g>
<defs>
<clipPath id="clip0_108_985">
<rect width="24" height="24" fill="white" transform="translate(0.599976)"/>
</clipPath>
</defs>
</svg>
