<svg width="25" height="24" viewBox="0 0 25 24" fill="none" xmlns="http://www.w3.org/2000/svg">
<path d="M12.2 0C5.57245 0 0.199951 5.3725 0.199951 12C0.199951 18.6275 5.57245 24 12.2 24C18.8275 24 24.2 18.6275 24.2 12C24.2 5.3725 18.8275 0 12.2 0ZM16.815 13.5388C16.815 13.5388 17.8762 14.5863 18.1375 15.0725C18.145 15.0825 18.1487 15.0925 18.1512 15.0975C18.2575 15.2762 18.2825 15.415 18.23 15.5188C18.1425 15.6912 17.8425 15.7763 17.74 15.7838H15.865C15.735 15.7838 15.4625 15.75 15.1325 15.5225C14.8787 15.345 14.6287 15.0538 14.385 14.77C14.0212 14.3475 13.7062 13.9825 13.3887 13.9825C13.3484 13.9824 13.3083 13.9888 13.27 14.0013C13.03 14.0788 12.7225 14.4213 12.7225 15.3337C12.7225 15.6188 12.4975 15.7825 12.3387 15.7825H11.48C11.1875 15.7825 9.6637 15.68 8.3137 14.2563C6.6612 12.5125 5.1737 9.015 5.1612 8.9825C5.06745 8.75625 5.2612 8.635 5.47245 8.635H7.3662C7.6187 8.635 7.7012 8.78875 7.7587 8.925C7.8262 9.08375 8.0737 9.715 8.47995 10.425C9.1387 11.5825 9.54245 12.0525 9.8662 12.0525C9.92691 12.0518 9.98653 12.0363 10.04 12.0075C10.4625 11.7725 10.3837 10.2662 10.365 9.95375C10.365 9.895 10.3637 9.28 10.1475 8.985C9.99245 8.77125 9.7287 8.69 9.5687 8.66C9.63346 8.57064 9.71878 8.49818 9.81745 8.44875C10.1075 8.30375 10.63 8.2825 11.1487 8.2825H11.4375C12 8.29 12.145 8.32625 12.3487 8.3775C12.7612 8.47625 12.77 8.7425 12.7337 9.65375C12.7225 9.9125 12.7112 10.205 12.7112 10.55C12.7112 10.625 12.7075 10.705 12.7075 10.79C12.695 11.2537 12.68 11.78 13.0075 11.9963C13.0502 12.023 13.0995 12.0373 13.15 12.0375C13.2637 12.0375 13.6062 12.0375 14.5337 10.4463C14.8197 9.93407 15.0683 9.40185 15.2775 8.85375C15.2962 8.82125 15.3512 8.72125 15.4162 8.6825C15.4642 8.65804 15.5174 8.64561 15.5712 8.64625H17.7975C18.04 8.64625 18.2062 8.6825 18.2375 8.77625C18.2925 8.925 18.2275 9.37875 17.2112 10.755L16.7575 11.3538C15.8362 12.5613 15.8362 12.6225 16.815 13.5388Z" fill="white"/>
</svg>
