<svg width="25" height="24" viewBox="0 0 25 24" fill="none" xmlns="http://www.w3.org/2000/svg">
<path d="M23.0052 5.53457C19.4151 -0.000182959 12.0853 -1.64565 6.40093 1.79487C0.866186 5.23539 -0.928867 12.7148 2.66124 18.2495L2.96042 18.6983L1.76371 23.1859L6.25135 21.9892L6.70011 22.2884C8.64475 23.3355 10.739 23.9339 12.8332 23.9339C15.077 23.9339 17.3208 23.3355 19.2655 22.1388C24.8002 18.5487 26.4457 11.2189 23.0052 5.53457ZM19.8638 17.0528C19.2655 17.9504 18.5175 18.5487 17.4704 18.6983C16.8721 18.6983 16.1241 18.9975 13.1324 17.8008C10.5894 16.6041 8.49516 14.6594 6.99929 12.4156C6.10176 11.3685 5.653 10.0222 5.50341 8.67591C5.50341 7.47921 5.95217 6.43209 6.70011 5.68415C6.99929 5.38498 7.29846 5.23539 7.59764 5.23539H8.34558C8.64475 5.23539 8.94393 5.23539 9.09351 5.83374C9.39269 6.58168 10.1406 8.37673 10.1406 8.52632C10.2902 8.67591 10.2902 8.97509 10.1406 9.12467C10.2902 9.42385 10.1406 9.72302 9.99104 9.87261C9.84145 10.0222 9.69187 10.3214 9.54228 10.471C9.2431 10.6206 9.09351 10.9197 9.2431 11.2189C9.84145 12.1164 10.5894 13.014 11.3373 13.7619C12.2349 14.5098 13.1324 15.1082 14.1795 15.5569C14.4787 15.7065 14.7779 15.7065 14.9274 15.4074C15.077 15.1082 15.825 14.3602 16.1241 14.0611C16.4233 13.7619 16.5729 13.7619 16.8721 13.9115L19.2655 15.1082C19.5647 15.2578 19.8638 15.4074 20.0134 15.5569C20.163 16.0057 20.163 16.6041 19.8638 17.0528Z" fill="white"/>
</svg>
